<svg width="92" height="24" viewBox="0 0 92 24" fill="none" xmlns="http://www.w3.org/2000/svg">
<path d="M2.00195 12.002C2.00312 16.9214 5.58036 21.1101 10.439 21.881V14.892H7.90195V12.002H10.442V9.80204C10.3284 8.75958 10.6845 7.72064 11.4136 6.96698C12.1427 6.21332 13.1693 5.82306 14.215 5.90204C14.9655 5.91417 15.7141 5.98101 16.455 6.10205V8.56104H15.191C14.7558 8.50405 14.3183 8.64777 14.0017 8.95171C13.6851 9.25566 13.5237 9.68693 13.563 10.124V12.002H16.334L15.891 14.893H13.563V21.881C18.8174 21.0506 22.502 16.2518 21.9475 10.9611C21.3929 5.67041 16.7932 1.73997 11.4808 2.01722C6.16831 2.29447 2.0028 6.68235 2.00195 12.002Z" fill="#121212"/>
<path d="M46.002 21.0409C43.542 21.0409 43.252 21.0279 42.292 20.9859C41.5433 20.9613 40.8044 20.8091 40.107 20.5359C38.9003 20.0663 37.9461 19.1117 37.477 17.9049C37.2143 17.2049 37.0726 16.4654 37.058 15.7179C37.002 14.7599 37.002 14.4459 37.002 12.0049C37.002 9.53788 37.015 9.24988 37.058 8.29488C37.0729 7.5484 37.2146 6.80989 37.477 6.11088C37.9456 4.90241 38.9013 3.94706 40.11 3.47888C40.8086 3.21509 41.5473 3.07303 42.294 3.05888C43.249 3.00488 43.563 3.00488 46.002 3.00488C48.482 3.00488 48.767 3.01788 49.712 3.05888C50.4605 3.07315 51.2012 3.21519 51.902 3.47888C53.1103 3.94759 54.0658 4.90276 54.535 6.11088C54.8021 6.82008 54.9445 7.57013 54.956 8.32788C55.012 9.28588 55.012 9.59888 55.012 12.0389C55.012 14.4789 54.998 14.7989 54.956 15.7459C54.9411 16.4941 54.799 17.2343 54.536 17.9349C54.0656 19.1426 53.11 20.0975 51.902 20.5669C51.2022 20.8291 50.4631 20.9707 49.716 20.9859C48.761 21.0409 48.448 21.0409 46.002 21.0409ZM45.968 4.58788C43.522 4.58788 43.268 4.59988 42.313 4.64288C41.7429 4.65043 41.1784 4.75562 40.644 4.95388C39.8547 5.25589 39.2302 5.87787 38.925 6.66588C38.7252 7.20618 38.62 7.77686 38.614 8.35288C38.561 9.32188 38.561 9.57588 38.561 12.0049C38.561 14.4049 38.57 14.6959 38.614 15.6589C38.6229 16.2291 38.728 16.7937 38.925 17.3289C39.2306 18.1164 39.855 18.7379 40.644 19.0399C41.1781 19.2395 41.7428 19.3447 42.313 19.3509C43.281 19.4069 43.536 19.4069 45.968 19.4069C48.421 19.4069 48.675 19.3949 49.622 19.3509C50.1924 19.3439 50.7573 19.2387 51.292 19.0399C52.0764 18.7353 52.6969 18.1152 53.002 17.3309C53.2014 16.7901 53.3065 16.2192 53.313 15.6429H53.324C53.367 14.6869 53.367 14.4319 53.367 11.9889C53.367 9.54588 53.356 9.28888 53.313 8.33388C53.304 7.76433 53.1988 7.20039 53.002 6.66588C52.6976 5.88046 52.077 5.25918 51.292 4.95388C50.7574 4.75462 50.1924 4.6494 49.622 4.64288C48.655 4.58788 48.402 4.58788 45.968 4.58788ZM46.002 16.6239C44.1319 16.6251 42.4454 15.4996 41.7288 13.7723C41.0123 12.0451 41.4069 10.0562 42.7286 8.73334C44.0503 7.41047 46.0388 7.01415 47.7667 7.72921C49.4946 8.44428 50.6215 10.1299 50.622 11.9999C50.6192 14.5509 48.553 16.6189 46.002 16.6239ZM46.002 8.99788C44.3451 8.99788 43.002 10.341 43.002 11.9979C43.002 13.6547 44.3451 14.9979 46.002 14.9979C47.6588 14.9979 49.002 13.6547 49.002 11.9979C48.9981 10.3426 47.6572 9.00173 46.002 8.99788ZM50.802 8.28489C50.2074 8.28268 49.7269 7.79947 49.728 7.20489C49.7291 6.61031 50.2114 6.12889 50.806 6.12889C51.4005 6.12889 51.8828 6.6103 51.884 7.20488C51.8842 7.49174 51.7702 7.76691 51.5672 7.96956C51.3642 8.17222 51.0888 8.28568 50.802 8.28489Z" fill="#121212"/>
<path d="M87.995 6.68799C88.8914 6.15208 89.5622 5.30823 89.882 4.31399C89.0397 4.81379 88.118 5.16587 87.157 5.35499C85.8246 3.94552 83.7135 3.60251 82.0034 4.51764C80.2933 5.43277 79.4075 7.37948 79.841 9.26999C76.3906 9.09676 73.176 7.4669 70.997 4.78599C69.8599 6.74741 70.441 9.25477 72.325 10.516C71.6437 10.4941 70.9775 10.3096 70.382 9.97799C70.382 9.99599 70.382 10.014 70.382 10.032C70.3824 12.0751 71.8224 13.8351 73.825 14.24C73.1931 14.4119 72.5302 14.4372 71.887 14.314C72.4502 16.0613 74.0606 17.2583 75.896 17.294C74.3758 18.4871 72.4985 19.1342 70.566 19.131C70.2235 19.1315 69.8812 19.1118 69.541 19.072C71.5034 20.333 73.7874 21.0023 76.12 21C79.3653 21.0223 82.484 19.7429 84.7787 17.448C87.0734 15.1531 88.3526 12.0342 88.33 8.78899C88.33 8.60299 88.3257 8.41799 88.317 8.23399C89.1575 7.62659 89.8828 6.87414 90.459 6.01199C89.676 6.35905 88.8455 6.58691 87.995 6.68799Z" fill="#121212"/>
</svg>
